<mxfile host="Electron" agent="Mozilla/5.0 (Windows NT 10.0; Win64; x64) AppleWebKit/537.36 (KHTML, like Gecko) draw.io/25.0.2 Chrome/128.0.6613.186 Electron/32.2.5 Safari/537.36" version="25.0.2">
  <diagram name="Page-1" id="uDG9o0WMvfkQ39vpYcqo">
    <mxGraphModel dx="1767" dy="806" grid="1" gridSize="10" guides="1" tooltips="1" connect="1" arrows="1" fold="1" page="1" pageScale="1" pageWidth="827" pageHeight="1169" math="0" shadow="0">
      <root>
        <mxCell id="0" />
        <mxCell id="1" parent="0" />
        <mxCell id="0jBIZUhXgIY4pltQhHeN-3" value="" style="edgeStyle=orthogonalEdgeStyle;rounded=0;orthogonalLoop=1;jettySize=auto;html=1;" parent="1" source="0jBIZUhXgIY4pltQhHeN-1" target="0jBIZUhXgIY4pltQhHeN-2" edge="1">
          <mxGeometry relative="1" as="geometry" />
        </mxCell>
        <mxCell id="0jBIZUhXgIY4pltQhHeN-1" value="เริ่ม" style="strokeWidth=2;html=1;shape=mxgraph.flowchart.terminator;whiteSpace=wrap;" parent="1" vertex="1">
          <mxGeometry x="300" y="30" width="194" height="60" as="geometry" />
        </mxCell>
        <mxCell id="0jBIZUhXgIY4pltQhHeN-9" value="" style="edgeStyle=orthogonalEdgeStyle;rounded=0;orthogonalLoop=1;jettySize=auto;html=1;" parent="1" source="0jBIZUhXgIY4pltQhHeN-2" target="0jBIZUhXgIY4pltQhHeN-8" edge="1">
          <mxGeometry relative="1" as="geometry" />
        </mxCell>
        <mxCell id="0jBIZUhXgIY4pltQhHeN-2" value="สร้างตัวแปรรับตัวเลข 1 ตัว" style="whiteSpace=wrap;html=1;strokeWidth=2;" parent="1" vertex="1">
          <mxGeometry x="303.5" y="170" width="187" height="60" as="geometry" />
        </mxCell>
        <mxCell id="0jBIZUhXgIY4pltQhHeN-11" value="" style="edgeStyle=orthogonalEdgeStyle;rounded=0;orthogonalLoop=1;jettySize=auto;html=1;" parent="1" source="0jBIZUhXgIY4pltQhHeN-8" target="0jBIZUhXgIY4pltQhHeN-10" edge="1">
          <mxGeometry relative="1" as="geometry" />
        </mxCell>
        <mxCell id="0jBIZUhXgIY4pltQhHeN-8" value="รับค่าตัวเลข" style="shape=parallelogram;perimeter=parallelogramPerimeter;whiteSpace=wrap;html=1;fixedSize=1;strokeWidth=2;" parent="1" vertex="1">
          <mxGeometry x="288.75" y="310" width="216.5" height="60" as="geometry" />
        </mxCell>
        <mxCell id="0jBIZUhXgIY4pltQhHeN-13" value="" style="edgeStyle=orthogonalEdgeStyle;rounded=0;orthogonalLoop=1;jettySize=auto;html=1;" parent="1" source="0jBIZUhXgIY4pltQhHeN-10" target="0jBIZUhXgIY4pltQhHeN-12" edge="1">
          <mxGeometry relative="1" as="geometry" />
        </mxCell>
        <mxCell id="0jBIZUhXgIY4pltQhHeN-15" value="" style="edgeStyle=orthogonalEdgeStyle;rounded=0;orthogonalLoop=1;jettySize=auto;html=1;" parent="1" source="0jBIZUhXgIY4pltQhHeN-10" target="0jBIZUhXgIY4pltQhHeN-14" edge="1">
          <mxGeometry relative="1" as="geometry" />
        </mxCell>
        <mxCell id="0jBIZUhXgIY4pltQhHeN-10" value="ถ้าเลขเป็นเลขมากว่า 0" style="rhombus;whiteSpace=wrap;html=1;strokeWidth=2;" parent="1" vertex="1">
          <mxGeometry x="323.5" y="440" width="147" height="80" as="geometry" />
        </mxCell>
        <mxCell id="0jBIZUhXgIY4pltQhHeN-17" value="" style="edgeStyle=orthogonalEdgeStyle;rounded=0;orthogonalLoop=1;jettySize=auto;html=1;" parent="1" source="0jBIZUhXgIY4pltQhHeN-12" target="0jBIZUhXgIY4pltQhHeN-16" edge="1">
          <mxGeometry relative="1" as="geometry" />
        </mxCell>
        <mxCell id="0jBIZUhXgIY4pltQhHeN-12" value="แสดงค่า&amp;nbsp;&lt;br&gt;positive" style="shape=parallelogram;perimeter=parallelogramPerimeter;whiteSpace=wrap;html=1;fixedSize=1;strokeWidth=2;" parent="1" vertex="1">
          <mxGeometry x="298.75" y="610" width="196.5" height="60" as="geometry" />
        </mxCell>
        <mxCell id="0jBIZUhXgIY4pltQhHeN-14" value="&lt;br&gt;&lt;span style=&quot;color: rgb(240, 240, 240); font-family: Helvetica; font-size: 12px; font-style: normal; font-variant-ligatures: normal; font-variant-caps: normal; font-weight: 400; letter-spacing: normal; orphans: 2; text-align: center; text-indent: 0px; text-transform: none; widows: 2; word-spacing: 0px; -webkit-text-stroke-width: 0px; white-space: normal; background-color: rgb(27, 29, 30); text-decoration-thickness: initial; text-decoration-style: initial; text-decoration-color: initial; display: inline !important; float: none;&quot;&gt;แสดงค่า&amp;nbsp;&lt;/span&gt;&lt;br style=&quot;forced-color-adjust: none; border-color: rgb(0, 0, 0); color: rgb(240, 240, 240); font-family: Helvetica; font-size: 12px; font-style: normal; font-variant-ligatures: normal; font-variant-caps: normal; font-weight: 400; letter-spacing: normal; orphans: 2; text-align: center; text-indent: 0px; text-transform: none; widows: 2; word-spacing: 0px; -webkit-text-stroke-width: 0px; white-space: normal; background-color: rgb(27, 29, 30); text-decoration-thickness: initial; text-decoration-style: initial; text-decoration-color: initial;&quot;&gt;negative&lt;br&gt;&lt;div&gt;&lt;br&gt;&lt;/div&gt;" style="shape=parallelogram;perimeter=parallelogramPerimeter;whiteSpace=wrap;html=1;fixedSize=1;strokeWidth=2;" parent="1" vertex="1">
          <mxGeometry x="564" y="450" width="186" height="60" as="geometry" />
        </mxCell>
        <mxCell id="0jBIZUhXgIY4pltQhHeN-20" value="" style="edgeStyle=orthogonalEdgeStyle;rounded=0;orthogonalLoop=1;jettySize=auto;html=1;" parent="1" source="0jBIZUhXgIY4pltQhHeN-16" target="0jBIZUhXgIY4pltQhHeN-19" edge="1">
          <mxGeometry relative="1" as="geometry" />
        </mxCell>
        <mxCell id="0jBIZUhXgIY4pltQhHeN-16" value="" style="verticalLabelPosition=bottom;verticalAlign=top;html=1;shape=mxgraph.flowchart.on-page_reference;" parent="1" vertex="1">
          <mxGeometry x="387" y="730" width="20" height="20" as="geometry" />
        </mxCell>
        <mxCell id="0jBIZUhXgIY4pltQhHeN-18" style="edgeStyle=orthogonalEdgeStyle;rounded=0;orthogonalLoop=1;jettySize=auto;html=1;entryX=1;entryY=0.5;entryDx=0;entryDy=0;entryPerimeter=0;exitX=0.5;exitY=1;exitDx=0;exitDy=0;" parent="1" source="0jBIZUhXgIY4pltQhHeN-14" target="0jBIZUhXgIY4pltQhHeN-16" edge="1">
          <mxGeometry relative="1" as="geometry" />
        </mxCell>
        <mxCell id="0jBIZUhXgIY4pltQhHeN-19" value="จบ" style="strokeWidth=2;html=1;shape=mxgraph.flowchart.terminator;whiteSpace=wrap;" parent="1" vertex="1">
          <mxGeometry x="300" y="810" width="194" height="60" as="geometry" />
        </mxCell>
      </root>
    </mxGraphModel>
  </diagram>
</mxfile>
